<?xml version="1.0" encoding="utf-8"?>
<!-- Generator: Adobe Illustrator 16.0.0, SVG Export Plug-In . SVG Version: 6.00 Build 0)  -->
<!DOCTYPE svg PUBLIC "-//W3C//DTD SVG 1.1//EN" "http://www.w3.org/Graphics/SVG/1.1/DTD/svg11.dtd">
<svg version="1.1" id="图层_1" xmlns="http://www.w3.org/2000/svg" xmlns:xlink="http://www.w3.org/1999/xlink" x="0px" y="0px"
	 width="841.89px" height="153px" viewBox="0 0 841.89 153" enable-background="new 0 0 841.89 153" xml:space="preserve">
<g>
	<path d="M82.281,109.634h-37.83l-7.394,28.619H5.762L45.483,13.738h36.798l39.722,124.515H89.676L82.281,109.634z M76.435,86.539
		l-2.751-10.543c-3.439-12.385-6.706-27.28-10.146-39.999h-0.688c-3.095,13.054-6.534,27.614-9.801,39.999l-2.751,10.543H76.435z"/>
	<path d="M204.542,138.253l-23.558-43.848h-14.789v43.848h-30.78V13.738h46.944c27.341,0,50.04,9.038,50.04,39.162
		c0,18.242-8.77,29.957-22.011,35.982l28.544,49.371H204.542z M166.196,70.807h13.757c14.616,0,22.354-6.192,22.354-17.907
		s-7.738-15.564-22.354-15.564h-13.757V70.807z"/>
	<path d="M278.143,38.507H243.58v-24.77h100.078v24.77h-34.735v99.746h-30.78V38.507z"/>
	<path d="M363.435,13.738h30.78v124.515h-30.78V13.738z"/>
	<path d="M417.773,76.666c0-41.506,28.543-65.271,61.043-65.271c16.681,0,30.094,7.531,38.862,16.233l-16.162,19.08
		C495.153,41.018,488.447,37,479.334,37c-16.509,0-30.093,14.393-30.093,38.661c0,24.769,11.692,39.161,29.747,39.161
		c10.146,0,18.4-5.021,24.418-11.38l16.164,18.745c-10.832,12.217-25.105,18.41-41.785,18.41
		C445.286,140.596,417.773,118.839,417.773,76.666z"/>
	<path d="M538.314,13.738h30.78v99.412h49.694v25.104h-80.475V13.738z"/>
	<path d="M640.974,13.738h81.163v24.77h-50.383v23.095h42.815v25.104h-42.815v26.443h52.272v25.104h-83.053V13.738z"/>
	<path d="M741.224,122.688l17.368-20.584c9.113,7.531,20.977,12.719,31.123,12.719c11.349,0,16.681-4.184,16.681-10.878
		c0-7.196-7.052-9.54-18.057-14.058l-16.335-6.695c-13.412-5.188-25.966-16.066-25.966-34.142c0-20.919,19.26-37.655,46.428-37.655
		c14.789,0,30.437,5.523,41.613,16.401L818.775,46.54c-8.427-6.192-16.336-9.54-26.31-9.54c-9.457,0-15.304,3.683-15.304,10.376
		c0,6.862,8.082,9.54,19.432,13.891l15.991,6.193c15.82,6.192,25.278,16.568,25.278,34.141c0,20.752-17.884,38.995-48.836,38.995
		C772.348,140.596,754.464,134.571,741.224,122.688z"/>
</g>
</svg>
