<?xml version="1.0" encoding="utf-8"?>
<!-- Generator: Adobe Illustrator 16.0.0, SVG Export Plug-In . SVG Version: 6.00 Build 0)  -->
<!DOCTYPE svg PUBLIC "-//W3C//DTD SVG 1.1//EN" "http://www.w3.org/Graphics/SVG/1.1/DTD/svg11.dtd">
<svg version="1.1" id="图层_1" xmlns="http://www.w3.org/2000/svg" xmlns:xlink="http://www.w3.org/1999/xlink" x="0px" y="0px"
	 width="935px" height="152.28px" viewBox="0 0 935 152.28" enable-background="new 0 0 935 152.28" xml:space="preserve">
<g>
	<path d="M5.204,116.77l20.837-15.23c4.44,8.535,10.931,12.384,17.079,12.384c9.906,0,15.201-4.854,15.201-21.086V12.839h30.572
		V95.18c0,24.434-13.151,44.517-41.674,44.517C27.407,139.696,14.426,132.165,5.204,116.77z"/>
	<path d="M111.612,74.427c0-40.835,23.57-63.932,58.241-63.932c34.671,0,58.242,23.263,58.242,63.932
		c0,40.836-23.571,65.27-58.242,65.27C135.182,139.696,111.612,115.263,111.612,74.427z M197.01,74.427
		c0-24.1-10.419-38.325-27.157-38.325c-16.738,0-26.986,14.226-26.986,38.325c0,24.267,10.248,39.496,26.986,39.496
		C186.591,113.923,197.01,98.693,197.01,74.427z"/>
	<path d="M250.985,78.778V12.839h30.402v69.119c0,23.597,7.174,31.965,21.179,31.965c13.834,0,21.52-8.368,21.52-31.965V12.839
		h29.377v65.939c0,42.007-17.08,60.918-50.897,60.918C268.578,139.696,250.985,120.785,250.985,78.778z"/>
	<path d="M447.231,137.354l-23.398-43.847h-14.689v43.847h-30.573V12.839h46.627c27.156,0,49.702,9.036,49.702,39.161
		c0,18.244-8.711,29.958-21.861,35.982l28.351,49.371H447.231z M409.144,69.908h13.664c14.517,0,22.203-6.192,22.203-17.908
		c0-11.715-7.686-15.563-22.203-15.563h-13.664V69.908z"/>
	<path d="M499.498,12.839h31.085l31.596,59.579l12.469,27.614h0.854c-1.707-13.221-4.098-31.128-4.098-46.023v-41.17h29.034v124.515
		h-31.084l-31.427-60.082l-12.468-27.278h-0.854c1.365,13.891,3.928,30.961,3.928,46.023v41.337h-29.034V12.839z"/>
	<path d="M689.937,108.734h-37.574l-7.345,28.619h-31.084l39.454-124.515h36.549l39.455,124.515h-32.108L689.937,108.734z
		 M684.13,85.64l-2.731-10.543c-3.417-12.386-6.661-27.28-10.077-40h-0.684c-3.074,13.055-6.49,27.614-9.735,40L658.17,85.64H684.13
		z"/>
	<path d="M742.715,12.839h30.572v99.411h49.361v25.104h-79.934V12.839z"/>
	<path d="M834.433,121.789l17.25-20.585c9.052,7.53,20.837,12.719,30.914,12.719c11.273,0,16.567-4.184,16.567-10.879
		c0-7.195-7.003-9.537-17.934-14.057l-16.226-6.695c-13.322-5.187-25.789-16.066-25.789-34.141c0-20.92,19.129-37.656,46.113-37.656
		c14.688,0,30.231,5.523,41.333,16.401l-15.201,18.745c-8.369-6.193-16.225-9.54-26.132-9.54c-9.394,0-15.201,3.682-15.201,10.376
		c0,6.861,8.028,9.54,19.302,13.891l15.883,6.192c15.713,6.193,25.107,16.569,25.107,34.141c0,20.753-17.764,38.995-48.506,38.995
		C865.348,139.696,847.584,133.672,834.433,121.789z"/>
</g>
</svg>
